<svg width="10" height="12" viewBox="0 0 10 12" fill="none" xmlns="http://www.w3.org/2000/svg">
<path d="M5.00027 6.857C4.55076 6.857 4.11135 6.73133 3.73761 6.49587C3.36386 6.26041 3.07256 5.92574 2.90054 5.53418C2.72852 5.14263 2.68352 4.71177 2.77121 4.2961C2.8589 3.88042 3.07536 3.4986 3.39321 3.19892C3.71105 2.89923 4.11601 2.69515 4.55688 2.61246C4.99774 2.52978 5.45471 2.57222 5.87 2.73441C6.28529 2.89659 6.64024 3.17125 6.88997 3.52364C7.1397 3.87603 7.27299 4.29033 7.27299 4.71415C7.27227 5.28226 7.03259 5.82691 6.60653 6.22863C6.18047 6.63034 5.60281 6.85632 5.00027 6.857ZM5.00027 3.42843C4.73056 3.42843 4.46692 3.50384 4.24267 3.64512C4.01842 3.78639 3.84364 3.98719 3.74043 4.22213C3.63722 4.45706 3.61022 4.71557 3.66283 4.96498C3.71545 5.21438 3.84532 5.44347 4.03603 5.62328C4.22674 5.8031 4.46971 5.92555 4.73423 5.97516C4.99875 6.02477 5.27293 5.99931 5.52211 5.90199C5.77128 5.80468 5.98425 5.63989 6.13409 5.42845C6.28392 5.21702 6.3639 4.96844 6.3639 4.71415C6.36354 4.37326 6.21976 4.04643 5.9641 3.80539C5.70845 3.56434 5.36181 3.42877 5.00027 3.42843Z" fill="white"/>
<path d="M5 12L1.16546 7.73614C1.11218 7.67212 1.05945 7.60769 1.00728 7.54286C0.352269 6.72934 -0.00158236 5.73567 5.31949e-06 4.71429C5.31949e-06 3.46398 0.526789 2.26488 1.46447 1.38078C2.40215 0.496682 3.67392 0 5 0C6.32608 0 7.59785 0.496682 8.53553 1.38078C9.47321 2.26488 10 3.46398 10 4.71429C10.0016 5.7352 9.64789 6.72842 8.99318 7.54157L8.99272 7.54286C8.99272 7.54286 8.85636 7.71171 8.83591 7.73443L5 12ZM1.73319 7.02643C1.73319 7.02643 1.83909 7.15843 1.86319 7.18671L5 10.6749L8.14091 7.182C8.16091 7.15843 8.26727 7.02557 8.26772 7.02514C8.80279 6.36048 9.09196 5.54873 9.09091 4.71429C9.09091 3.69131 8.6599 2.71023 7.89271 1.98687C7.12551 1.26352 6.08498 0.857143 5 0.857143C3.91502 0.857143 2.87449 1.26352 2.10729 1.98687C1.3401 2.71023 0.909095 3.69131 0.909095 4.71429C0.908142 5.54925 1.19763 6.36146 1.73319 7.02643Z" fill="white"/>
</svg>
